<svg width="394" height="419" viewBox="0 0 394 419" fill="none" xmlns="http://www.w3.org/2000/svg">
<path d="M348.141 240.118C325.282 284.917 299.52 327.462 268.562 366.717C257.408 380.86 245.533 394.426 231.267 405.554C208.401 423.391 183.73 423.033 161.407 404.583C140.691 387.461 123.983 366.665 108.479 344.927C72.2432 294.122 42.2376 239.861 19.4986 181.7C10.5758 158.877 3.47437 135.478 0.630436 111.008C-2.98132 79.9315 8.8476 54.7408 38.1325 36.7916C60.8196 22.8862 85.9546 15.2302 111.688 9.21138C145.656 1.26647 180.133 -1.01371 214.823 0.387103C258.768 2.1617 301.369 10.5462 341.471 29.3396C358.82 37.4701 373.725 48.575 383.796 65.4143C394.256 82.9051 394.972 101.618 391.346 120.945C383.474 162.898 367.416 201.897 348.141 240.118ZM154.007 122.596C147.895 113.628 138.964 108.385 128.672 107.255C113.305 105.569 97.7455 105.528 82.2679 106.129C74.8513 106.418 70.854 110.596 70.8234 117.428C70.6932 146.576 70.7485 175.726 70.7537 204.875C70.7546 210.02 73.535 213.202 78.1203 215.086C81.4798 216.466 84.9369 216.277 88.4512 216.003C93.4265 215.614 95.3817 213.51 95.311 208.098C94.9845 183.117 95.2116 158.129 95.0539 133.144C95.0286 129.127 96.1312 127.306 100.385 127.548C107.198 127.935 114.038 127.843 120.849 128.248C129.187 128.743 134.976 135.485 134.8 144.113C134.641 151.922 128.976 157.437 120.563 157.83C117.072 157.993 113.553 157.716 110.076 157.997C105.202 158.391 102.194 161.834 101.768 167.025C101.311 172.598 103.619 177.1 108.249 177.96C111.728 178.606 113.295 180.726 114.94 183.281C120.708 192.24 126.23 201.381 132.434 210.031C138.563 218.575 149.868 220.028 157.604 214.043C160.59 211.733 161.442 209.632 158.806 206.201C152.62 198.149 146.794 189.818 140.871 181.566C139.637 179.846 138.096 178.22 138.085 175.232C147.592 170.947 155.577 164.581 158.154 153.638C160.631 143.119 160.02 132.819 154.007 122.596ZM263.454 144.022C261.652 142.296 259.462 141.789 257.031 141.826C253.203 141.884 249.372 141.828 245.543 141.839C243.75 141.843 242.346 141.513 241.837 139.381C240.126 132.224 244.17 125.893 251.494 124.785C253.932 124.415 256.475 124.473 258.948 124.65C265.319 125.106 268.113 123.336 269.129 117.924C270.311 111.634 267.755 106.848 262.341 105.212C239.306 98.2525 219.755 111.891 218.51 135.882C218.331 139.338 217.89 141.654 213.593 142.405C208.65 143.269 207.617 147.678 207.593 152.103C207.575 155.62 208.387 159.563 212.254 159.936C218.338 160.524 218.24 164.047 218.165 168.536C217.96 180.846 217.469 193.162 218.438 205.471C218.78 209.817 220.356 213.275 224.464 215.036C229.245 217.086 234.237 216.531 239.171 215.598C241.304 215.194 241.959 213.751 241.956 211.57C241.939 197.261 242.105 182.953 242.095 168.644C242.088 159.128 242.515 160.925 249.997 161.151C251.494 161.196 252.993 161.194 254.492 161.195C265.279 161.198 269.177 154.378 263.454 144.022ZM313.498 160.963C316.651 161.116 319.825 161.551 322.931 160.663C327.743 159.287 330.109 154.754 329.115 148.614C328.362 143.961 325.529 141.723 320.776 141.823C316.948 141.905 313.117 141.861 309.288 141.832C307.614 141.82 305.996 141.819 305.298 139.7C303.226 133.41 307.35 126.169 313.833 124.769C317.166 124.049 320.468 124.334 323.755 124.897C326.883 125.433 329.34 124.466 331.165 121.933C336.242 114.888 332.582 106.038 324.001 105.001C320.221 104.544 316.351 104.634 312.531 104.758C293.277 105.381 282.184 116.658 281.849 136.042C281.787 139.653 281.32 141.78 276.837 142.198C271.747 142.673 270.57 147.009 270.564 151.524C270.56 155.835 271.501 159.976 276.579 160.369C281.319 160.735 281.753 163.302 281.725 167.033C281.634 179.52 281.63 192.009 281.743 204.495C281.807 211.534 285.775 215.689 292.728 216.16C295.033 216.316 297.372 215.994 299.693 215.866C303.744 215.643 305.304 213.753 305.226 209.464C304.974 195.649 305.155 181.827 305.169 168.007C305.177 160.451 305.177 160.451 313.498 160.963ZM173.819 162.049C173.818 175.031 174.193 188.027 173.712 200.991C173.221 214.194 181.2 217.113 191.575 216.064C195.648 215.652 197.54 213.888 197.488 209.332C197.27 190.362 197.483 171.386 197.43 152.413C197.406 143.728 194.825 140.943 186.331 139.332C183.262 138.75 180.384 139.589 177.417 139.768C174.597 139.937 173.78 141.529 173.805 144.073C173.861 149.731 173.82 155.39 173.819 162.049ZM140.319 245.441C141.614 247.952 142.933 250.451 144.197 252.976C145.087 254.753 145.706 256.922 148.133 256.981C150.498 257.039 151.349 254.985 152.432 253.306C154.518 250.069 155.654 246.174 159.031 243.234C160.108 245.552 159.701 247.542 159.733 249.456C159.791 252.946 159.733 256.439 159.797 259.929C159.834 261.88 160.862 263.012 162.879 263.112C164.893 263.212 166.107 262.307 166.115 260.242C166.147 251.43 166.153 242.617 166.102 233.805C166.091 231.906 164.821 230.815 163.124 230.22C161.472 229.64 160.071 230.319 159.145 231.551C157.754 233.401 156.633 235.452 155.381 237.407C153.097 240.976 151.845 245.194 148.27 249C145.395 243.614 142.821 238.675 140.128 233.802C138.906 231.589 137.453 229.24 134.366 230.182C131.585 231.03 130.811 233.364 130.827 236.11C130.871 243.426 130.822 250.743 130.843 258.06C130.85 260.505 131.097 263.013 134.344 263.015C137.647 263.016 137.074 260.326 137.201 258.253C137.5 253.373 136.663 248.431 137.809 242.91C138.804 243.825 139.364 244.339 140.319 245.441ZM171.895 116.614C174.07 123.794 178.157 127.75 184.502 128.109C189.91 128.415 194.699 126.764 197.643 121.782C200.319 117.253 199.807 110.817 196.633 106.8C193.242 102.509 186.215 100.524 180.803 102.327C175.187 104.198 172.254 108.622 171.895 116.614ZM177.058 238.693C174.872 238.9 174.464 240.555 174.333 242.255C174.105 245.23 173.876 248.218 173.916 251.197C174.024 259.429 177.936 263.525 185.55 263.586C193.867 263.651 198.121 259.505 198.251 251.181C198.285 249.022 198.369 246.856 198.239 244.705C198.088 242.234 199.087 238.782 194.86 238.873C190.982 238.956 191.935 242.175 191.833 244.5C191.71 247.319 191.904 250.154 191.727 252.967C191.52 256.238 189.629 258.316 186.347 258.364C182.953 258.414 181.263 256.276 181.189 252.937C181.119 249.783 181.163 246.626 181.113 243.471C181.077 241.182 180.676 239.096 177.058 238.693ZM191.843 309.049C191.845 323.696 191.836 338.344 191.86 352.992C191.863 354.978 191.729 357.601 194.349 357.651C196.923 357.7 196.416 355.048 196.418 353.354C196.44 332.215 196.408 311.076 196.346 289.937C196.342 288.351 196.646 286.129 194.319 286.045C191.689 285.951 191.857 288.268 191.846 290.072C191.808 296.064 191.84 302.056 191.843 309.049ZM211.85 238.103C208.011 239.174 204.936 241.305 205.028 245.571C205.12 249.901 208.593 251.598 212.263 252.75C213.686 253.196 215.117 253.644 216.484 254.232C217.595 254.71 218.531 255.538 218.229 256.91C217.94 258.221 216.819 258.647 215.604 258.823C213.201 259.172 210.993 258.479 208.834 257.544C207.279 256.87 205.813 256.795 205.099 258.621C204.485 260.19 205.648 261.131 206.814 261.82C210.656 264.092 214.832 263.899 218.923 262.94C222.31 262.146 224.432 259.666 224.721 256.206C225.01 252.755 222.726 250.694 219.783 249.463C217.8 248.634 215.654 248.199 213.644 247.424C212.392 246.94 211.157 246.135 211.568 244.476C211.939 242.977 213.244 242.347 214.612 242.38C216.073 242.416 217.539 242.806 218.977 243.148C220.46 243.502 222.084 244.131 222.755 242.136C223.394 240.234 221.75 239.564 220.454 238.839C217.978 237.452 215.293 237.846 211.85 238.103ZM207.299 308.052C207.308 303.89 207.381 299.728 207.293 295.568C207.257 293.842 207.738 291.273 205.248 291.161C202.235 291.026 202.862 293.823 202.855 295.661C202.795 313.139 202.795 330.617 202.827 348.095C202.831 349.983 202.276 352.813 205.096 352.763C207.885 352.713 207.249 349.885 207.256 348.002C207.304 335.018 207.287 322.034 207.299 308.052ZM254.617 243.7C256.931 243.041 259.209 242.976 261.401 244.138C263.161 245.071 264.76 244.881 265.583 243.008C266.384 241.188 264.712 240.363 263.553 239.494C262.9 239.005 262.11 238.657 261.334 238.378C255.974 236.45 249.066 238.705 245.772 243.426C242.532 248.071 243.04 255.471 246.887 259.663C250.938 264.078 257.419 265.203 262.811 262.332C264.186 261.6 266.341 261.022 265.474 258.834C264.616 256.672 262.82 256.868 260.869 257.699C256.905 259.386 252.931 259.143 250.99 254.966C249.138 250.979 249.471 246.786 254.617 243.7ZM180.847 328.042C180.849 331.698 180.794 335.356 180.877 339.01C180.92 340.895 180.243 343.672 182.988 343.838C185.88 344.012 185.384 341.172 185.428 339.316C185.72 327.026 185.078 314.723 186.078 302.441C186.252 300.302 186.129 297.409 183.341 297.477C180.458 297.546 180.879 300.533 180.865 302.614C180.811 310.757 180.845 318.901 180.847 328.042ZM195.265 52.0644C195.255 48.9056 195.331 45.7434 195.202 42.5895C195.127 40.7482 195.782 37.9701 192.747 38.1452C190.25 38.2893 190.725 40.7785 190.723 42.5353C190.707 54.8375 190.715 67.1398 190.768 79.4418C190.775 81.168 190.182 83.6825 192.715 83.8691C195.734 84.0915 195.231 81.37 195.243 79.492C195.298 70.6811 195.265 61.8697 195.265 52.0644ZM201.743 47.5685C201.765 58.2117 201.775 68.855 201.821 79.4981C201.829 81.3363 201.823 83.6427 204.26 83.6492C206.49 83.6551 206.342 81.4206 206.342 79.7928C206.339 68.8172 206.298 57.8416 206.241 46.8662C206.233 45.3614 206.209 43.5679 204.28 43.3354C201.833 43.0404 201.888 45.0447 201.743 47.5685ZM224.532 319.038C224.278 324.681 223.996 330.322 223.788 335.967C223.722 337.783 224.359 339.484 226.396 339.573C228.465 339.663 229.216 337.988 229.218 336.176C229.229 326.857 229.189 317.537 229.117 308.218C229.105 306.668 228.79 305.02 226.726 305.145C225.062 305.246 224.655 306.699 224.615 308.072C224.518 311.397 224.544 314.726 224.532 319.038ZM235.643 300.698C235.531 309.52 235.406 318.341 235.318 327.164C235.301 328.828 235.216 330.816 237.414 331.085C239.286 331.313 240.049 329.721 240.061 328.132C240.127 318.974 240.106 309.815 240.07 300.656C240.066 299.421 239.514 298.341 238.189 298.027C236.711 297.676 236.093 298.629 235.643 300.698ZM236.911 241.075C236.041 239.042 234.445 238.403 232.473 239.113C230.758 239.73 230.798 241.402 230.796 242.898C230.788 248.349 230.772 253.801 230.84 259.252C230.867 261.506 231.853 263.142 234.383 263.076C236.864 263.011 237.183 261.192 237.175 259.235C237.149 253.454 237.113 247.674 236.911 241.075ZM146.883 54.5306C146.87 61.3513 146.848 68.172 146.852 74.9927C146.853 76.825 146.682 79.192 149.043 79.3743C151.732 79.5818 151.374 77.0334 151.393 75.3196C151.474 68.1673 151.455 61.0135 151.425 53.8604C151.418 52.2274 151.595 50.1195 149.297 50.0335C147.031 49.9487 146.982 51.9595 146.883 54.5306ZM234.82 69.0305C234.833 72.3371 234.827 75.6441 234.868 78.9504C234.885 80.3277 235.114 81.7853 236.8 81.9368C238.837 82.1197 239.255 80.5136 239.273 78.9656C239.357 71.362 239.388 63.7574 239.371 56.1533C239.368 54.8139 239.055 53.3174 237.372 53.1843C235.385 53.0273 234.897 54.5477 234.869 56.1384C234.8 60.1053 234.825 64.0738 234.82 69.0305ZM164.338 316.017C164.341 312.029 164.392 308.04 164.319 304.054C164.293 302.637 164.599 300.7 162.559 300.465C160.605 300.24 160.013 302.05 159.982 303.487C159.826 310.793 159.834 318.102 159.834 325.41C159.834 326.643 160.318 327.793 161.736 327.938C163.454 328.113 164.141 326.869 164.217 325.46C164.367 322.645 164.313 319.818 164.338 316.017ZM267.837 58.3441C267.846 64.3254 267.834 70.3069 267.882 76.2879C267.893 77.7062 268.357 79.0491 270.066 79.0603C271.46 79.0693 272.13 77.9897 272.138 76.714C272.183 69.2405 272.193 61.7665 272.146 54.2931C272.138 53.0232 271.425 52.0125 270.008 52.0262C268.852 52.0374 268.228 52.9268 268.058 53.9623C267.87 55.1017 267.9 56.2768 267.837 58.3441ZM184.093 72.1173C184.117 65.151 184.157 58.1848 184.152 51.2186C184.151 49.6303 183.774 48.0362 181.776 48.1387C180.051 48.2271 179.856 49.7993 179.847 51.1341C179.801 57.7691 179.689 64.4088 179.892 71.0379C179.968 73.5099 180.992 75.6145 184.093 72.1173ZM246.828 69.9817C249.495 71.5408 250.176 69.6707 250.263 67.7128C250.534 61.5954 250.639 55.469 250.711 49.3451C250.729 47.7894 250.178 46.2207 248.319 46.1082C246.351 45.9892 245.803 47.5533 245.843 49.1295C246.016 55.8898 245.17 62.6786 246.828 69.9817ZM118.404 62.1278C118.391 59.9679 118.448 57.8045 118.338 55.6495C118.276 54.4388 117.771 53.2707 116.355 53.1609C114.645 53.0285 113.955 54.2637 113.936 55.693C113.859 61.3447 113.87 66.9981 113.911 72.6504C113.921 74.0956 114.552 75.4238 116.17 75.4002C117.808 75.3762 118.343 73.9156 118.388 72.5545C118.494 69.4018 118.417 66.2429 118.404 62.1278ZM218.146 312.964C217.974 311.5 217.352 310.284 215.715 310.425C214.028 310.57 213.747 312.055 213.732 313.41C213.676 318.547 213.663 323.685 213.711 328.822C213.726 330.356 214.048 332.081 216.011 332.029C217.961 331.976 218.161 330.258 218.169 328.708C218.195 323.736 218.183 318.763 218.146 312.964ZM247.021 318.856C249.88 321.448 250.96 319.468 251.085 316.954C251.325 312.139 251.183 307.303 251.132 302.476C251.116 300.903 250.687 299.241 248.764 299.299C246.816 299.357 246.563 301.125 246.563 302.645C246.563 307.797 246.662 312.95 247.021 318.856ZM212.73 62.0914C212.771 64.571 212.771 67.0523 212.872 69.5295C212.924 70.7915 213.531 71.8535 214.909 71.9165C216.272 71.9789 217.113 71.0234 217.143 69.7494C217.258 64.7952 217.292 59.8381 217.261 54.8826C217.253 53.6554 216.623 52.556 215.206 52.5165C213.813 52.4775 213.094 53.5125 212.982 54.7305C212.785 56.8655 212.8 59.0202 212.73 62.0914ZM124.934 62.9637C124.934 66.7754 124.885 70.5881 124.961 74.3982C124.985 75.6218 125.635 76.6843 126.945 76.9405C128.113 77.1688 128.968 76.4123 129.074 75.3611C129.488 71.254 130.399 67.1605 129.867 63.0094C129.699 61.7001 129.076 60.3761 127.503 60.1588C126.054 59.9588 125.515 61.0705 124.934 62.9637ZM261.722 66.5162C261.816 65.3638 262.046 64.2029 261.974 63.0609C261.86 61.2532 261.762 59.023 259.327 59.0357C256.817 59.0487 256.901 61.2597 256.862 63.0978C256.834 64.4193 256.704 65.7605 256.874 67.0598C257.189 69.4795 255.577 73.5499 259.085 73.693C262.758 73.8427 261.147 69.6868 261.722 66.5162ZM228.295 62.8128C228.124 61.4053 227.66 60.0828 225.986 60.1997C224.39 60.3111 223.888 61.6307 223.862 63.0498C223.81 65.8425 223.801 68.6369 223.83 71.43C223.847 73.0248 224.376 74.6221 226.125 74.7244C228.144 74.8425 228.267 73.0129 228.313 71.5312C228.396 68.9044 228.347 66.2734 228.295 62.8128ZM172.909 310.956C170.58 312.968 169.511 322.609 171.515 324.351C172.997 325.639 174.798 325.153 174.885 323.394C175.088 319.288 176.654 314.935 172.909 310.956ZM148.755 313.025C148.869 314.671 148.844 316.343 149.146 317.954C149.336 318.961 150.211 319.618 151.375 319.509C152.318 319.421 152.959 318.789 153.057 317.939C153.418 314.814 153.673 311.668 152.986 308.555C152.796 307.696 152.114 307.155 151.201 307.076C150.269 306.995 149.463 307.489 149.252 308.29C148.92 309.548 148.9 310.889 148.755 313.025ZM135.868 67.6648C135.991 69.5207 136.115 71.9314 138.453 71.7134C141.253 71.4523 141.035 68.658 141.047 66.5588C141.058 64.4751 141.473 61.9734 138.782 61.0886C137.489 60.6636 136.533 61.7309 136.248 62.9332C135.945 64.2071 135.977 65.5601 135.868 67.6648ZM171.12 69.8943C175.725 68.6288 173.999 65.0225 173.805 62.156C173.714 60.8101 172.344 59.5362 170.922 60.1695C167.665 61.6197 169.082 64.708 168.955 67.2008C168.901 68.2545 169.605 69.0429 171.12 69.8943ZM157.905 66.2457C158.421 67.713 159.176 69.4493 160.96 68.4718C163.047 67.328 163.414 65.0302 162.813 62.7901C162.424 61.3396 161.736 59.7823 159.841 60.0529C157.926 60.3263 157.85 61.9978 157.79 63.5215C157.764 64.1821 157.809 64.8454 157.905 66.2457ZM280.373 70.7301C284.238 71.0621 284.046 68.2731 283.837 65.8719C283.702 64.3205 283.066 62.1592 280.934 62.7042C278.183 63.4077 278.805 66.0191 278.921 68.0853C278.964 68.837 279.512 69.5602 280.373 70.7301ZM232.641 227.245C230.821 228.153 229.604 229.447 230.601 231.571C231.308 233.077 232.738 233.603 234.368 233.278C235.77 232.999 236.928 232.204 237.007 230.707C237.137 228.229 235.638 227.166 232.641 227.245ZM107.765 65.7827C107.2 64.6037 106.701 63.1975 105.057 63.4552C103.834 63.647 103.121 64.6606 102.959 65.8826C102.69 67.9257 102.768 70.3355 105.177 70.5914C107.77 70.8667 108.001 68.4898 107.765 65.7827Z" fill="#D7C3F6"/>
</svg>
